<svg width="170" height="148" viewBox="0 0 170 148" fill="none" xmlns="http://www.w3.org/2000/svg">
<path d="M84.0341 136.11C84.678 136.11 85.4186 135.957 86.2557 135.65C87.0928 135.344 87.7689 134.946 88.2841 134.457L153.386 72.3807C155.061 70.789 156.316 68.9831 157.153 66.9628C157.991 64.9426 158.409 62.8918 158.409 60.8104C158.409 58.7289 157.991 56.6475 157.153 54.566C156.316 52.4846 155.061 50.648 153.386 49.0563L118.614 15.9981C116.939 14.4064 115.008 13.2127 112.818 12.4168C110.629 11.621 108.439 11.2231 106.25 11.2231C104.061 11.2231 101.903 11.621 99.7784 12.4168C97.6534 13.2127 95.7538 14.4064 94.0795 15.9981L90.6023 19.304L106.25 34.3638C107.924 36.0779 109.405 38.0675 110.693 40.3326C111.981 42.5977 112.625 45.0771 112.625 47.7707C112.625 52.4234 110.725 56.525 106.926 60.0757C103.127 63.6264 98.7803 65.4018 93.8864 65.4018C90.6667 65.4018 87.9943 64.9426 85.8693 64.0243C83.7443 63.1061 81.7803 61.7899 79.9773 60.0757L65.875 46.6688L30.9091 79.9106C30.2652 80.5228 29.8144 81.1656 29.5568 81.839C29.2992 82.5124 29.1705 83.2165 29.1705 83.9511C29.1705 85.5428 29.7178 86.859 30.8125 87.8997C31.9072 88.9404 33.2917 89.4608 34.9659 89.4608C35.7386 89.4608 36.4792 89.2771 37.1875 88.9098C37.8958 88.5425 38.5076 88.114 39.0227 87.6242L65.6818 62.2796L73.7954 69.9932L47.3295 95.1541C46.6856 95.7663 46.2348 96.4397 45.9773 97.1744C45.7197 97.909 45.5909 98.6436 45.5909 99.3782C45.5909 100.847 46.1705 102.133 47.3295 103.235C48.4886 104.337 49.8409 104.888 51.3864 104.888C52.1591 104.888 52.8996 104.735 53.608 104.429C54.3163 104.123 54.928 103.725 55.4432 103.235L82.1023 77.8904L90.2159 85.604L63.75 110.765C63.2348 111.255 62.8163 111.897 62.4943 112.693C62.1723 113.489 62.0114 114.254 62.0114 114.989C62.0114 116.458 62.5909 117.744 63.75 118.846C64.9091 119.948 66.2614 120.499 67.8068 120.499C68.5795 120.499 69.2879 120.376 69.9318 120.131C70.5758 119.887 71.2197 119.458 71.8636 118.846L98.5227 93.5012L106.636 101.215L79.9773 126.559C79.3333 127.172 78.8826 127.845 78.625 128.58C78.3674 129.314 78.2386 129.988 78.2386 130.6C78.2386 132.314 78.7538 133.661 79.7841 134.64C80.8144 135.62 82.2311 136.11 84.0341 136.11ZM84.0341 147.129C79.7841 147.129 75.9848 145.629 72.6364 142.629C69.2879 139.63 67.2917 135.926 66.6477 131.518C62.2689 130.906 58.5985 129.192 55.6364 126.376C52.6742 123.56 50.8712 120.07 50.2273 115.907C45.8485 115.295 42.2102 113.55 39.3125 110.673C36.4148 107.796 34.6439 104.337 34 100.297C29.2348 99.6843 25.3068 97.8478 22.2159 94.7868C19.125 91.7259 17.5795 88.0527 17.5795 83.7674C17.5795 81.686 17.9981 79.6045 18.8352 77.5231C19.6723 75.4417 20.928 73.6051 22.6023 72.0134L65.875 30.8743L87.125 51.0765C88.1553 52.0561 89.2822 52.8213 90.5057 53.3723C91.7292 53.9232 92.9204 54.1987 94.0795 54.1987C95.7538 54.1987 97.3314 53.4947 98.8125 52.0867C100.294 50.6786 101.034 49.1788 101.034 47.5871C101.034 46.8524 100.809 46.026 100.358 45.1077C99.9072 44.1894 99.1667 43.2405 98.1364 42.261L70.5114 15.9981C68.8371 14.4064 66.9053 13.2127 64.7159 12.4168C62.5265 11.621 60.3371 11.2231 58.1477 11.2231C55.9583 11.2231 53.8011 11.621 51.6761 12.4168C49.5511 13.2127 47.6515 14.4064 45.9773 15.9981L16.6136 43.9139C14.8106 45.6281 13.5549 47.434 12.8466 49.3318C12.1383 51.2296 11.7197 53.3417 11.5909 55.668C11.4621 58.1167 11.9451 60.4736 13.0398 62.7387C14.1345 65.0038 15.4545 67.0547 17 68.8912L8.69318 76.7885C6.11742 74.0948 4.02462 70.8503 2.41477 67.0547C0.804924 63.2591 0 59.4023 0 55.4843C0 51.8112 0.740531 48.2911 2.22159 44.924C3.70265 41.557 5.79545 38.5879 8.5 36.0167L37.6705 8.28456C40.5038 5.59093 43.7235 3.60132 47.3295 2.31572C50.9356 1.03013 54.6061 0.387329 58.3409 0.387329C62.0758 0.387329 65.714 1.03013 69.2557 2.31572C72.7973 3.60132 75.9848 5.59093 78.8182 8.28456L82.2954 11.5904L85.7727 8.28456C88.6061 5.59093 91.8258 3.60132 95.4318 2.31572C99.0379 1.03013 102.708 0.387329 106.443 0.387329C110.178 0.387329 113.816 1.03013 117.358 2.31572C120.9 3.60132 124.087 5.59093 126.92 8.28456L161.5 41.1591C164.333 43.8527 166.458 46.9137 167.875 50.3419C169.292 53.7702 170 57.2597 170 60.8104C170 64.361 169.292 67.8199 167.875 71.187C166.458 74.554 164.333 77.5843 161.5 80.278L96.3977 142.17C94.7235 143.762 92.8239 144.986 90.6989 145.843C88.5739 146.7 86.3523 147.129 84.0341 147.129Z" fill="#BFBC37"/>
</svg>
