<svg width="167" height="159" viewBox="0 0 167 159" fill="none" xmlns="http://www.w3.org/2000/svg">
<path d="M84.1667 125.659C86.3889 125.659 88.2639 124.932 89.7917 123.476C91.3194 122.02 92.0833 120.233 92.0833 118.116C92.0833 115.998 91.3194 114.212 89.7917 112.756C88.2639 111.3 86.3889 110.572 84.1667 110.572C81.9444 110.572 80.0694 111.3 78.5417 112.756C77.0139 114.212 76.25 115.998 76.25 118.116C76.25 120.233 77.0139 122.02 78.5417 123.476C80.0694 124.932 81.9444 125.659 84.1667 125.659ZM76.875 96.6764H89.1667C89.1667 93.2355 89.618 90.0923 90.5208 87.247C91.4236 84.4016 94.2361 81.1261 98.9583 77.4205C103.264 73.9796 106.319 70.6049 108.125 67.2963C109.931 63.9877 110.833 60.3483 110.833 56.378C110.833 49.3638 108.437 43.7393 103.646 39.5043C98.8542 35.2693 92.5 33.1519 84.5833 33.1519C77.7778 33.1519 71.7708 34.7731 66.5625 38.0155C61.3542 41.2578 57.5694 45.7244 55.2083 51.4152L66.25 55.3854C67.7778 51.6798 70.0694 48.8014 73.125 46.7501C76.1805 44.6988 79.7917 43.6731 83.9583 43.6731C88.6805 43.6731 92.5 44.8973 95.4167 47.3456C98.3333 49.794 99.7917 52.9371 99.7917 56.775C99.7917 59.6866 98.8889 62.4327 97.0833 65.0134C95.2778 67.5941 92.6389 70.274 89.1667 73.0532C85 76.4941 81.9097 79.9019 79.8958 83.2767C77.8819 86.6514 76.875 91.118 76.875 96.6764ZM83.3333 158.811C71.9444 158.811 61.1806 156.727 51.0417 152.558C40.9028 148.389 32.0486 142.699 24.4792 135.486C16.9097 128.273 10.9375 119.836 6.5625 110.175C2.1875 100.514 0 90.2577 0 79.4056C0 68.4212 2.1875 58.0985 6.5625 48.4374C10.9375 38.7764 16.9097 30.3727 24.4792 23.2262C32.0486 16.0796 40.9028 10.422 51.0417 6.25319C61.1806 2.0844 71.9444 0 83.3333 0C94.8611 0 105.694 2.0844 115.833 6.25319C125.972 10.422 134.792 16.0796 142.292 23.2262C149.792 30.3727 155.729 38.7764 160.104 48.4374C164.479 58.0985 166.667 68.4212 166.667 79.4056C166.667 90.2577 164.479 100.514 160.104 110.175C155.729 119.836 149.792 128.273 142.292 135.486C134.792 142.699 125.972 148.389 115.833 152.558C105.694 156.727 94.8611 158.811 83.3333 158.811ZM83.3333 146.9C103.056 146.9 119.792 140.316 133.542 127.148C147.292 113.98 154.167 98.066 154.167 79.4056C154.167 60.613 147.292 44.6657 133.542 31.5637C119.792 18.4618 103.056 11.9108 83.3333 11.9108C63.75 11.9108 47.0486 18.4618 33.2292 31.5637C19.4097 44.6657 12.5 60.613 12.5 79.4056C12.5 98.066 19.4097 113.98 33.2292 127.148C47.0486 140.316 63.75 146.9 83.3333 146.9Z" fill="#BFBC37"/>
</svg>
