<svg width="188" height="91" viewBox="0 0 188 91" fill="none" xmlns="http://www.w3.org/2000/svg">
<path d="M0 90.5428V80.6528C0 75.8012 2.74167 71.8825 8.225 68.8969C13.7083 65.9112 20.7583 64.4184 29.375 64.4184C31.0722 64.4184 32.6389 64.4495 34.075 64.5117C35.5111 64.5739 36.9472 64.7294 38.3833 64.9782C37.3389 67.093 36.5556 69.239 36.0333 71.416C35.5111 73.593 35.25 75.9256 35.25 78.4136V90.5428H0ZM47 90.5428V78.4136C47 70.3275 51.341 63.7964 60.0229 58.8203C68.7049 53.8442 80.0306 51.3561 94 51.3561C108.1 51.3561 119.458 53.8442 128.075 58.8203C136.692 63.7964 141 70.3275 141 78.4136V90.5428H47ZM152.75 90.5428V78.4136C152.75 75.9256 152.522 73.593 152.065 71.416C151.608 69.239 150.857 67.093 149.812 64.9782C151.249 64.7294 152.685 64.5739 154.121 64.5117C155.557 64.4495 157.058 64.4184 158.625 64.4184C167.503 64.4184 174.618 65.9112 179.971 68.8969C185.324 71.8825 188 75.8012 188 80.6528V90.5428H152.75ZM94 62.5523C83.5556 62.5523 75.0695 64.0452 68.5417 67.0308C62.0139 70.0165 58.75 73.8107 58.75 78.4136V79.3466H129.25V78.227C129.25 73.7485 126.019 70.0165 119.556 67.0308C113.094 64.0452 104.575 62.5523 94 62.5523ZM29.375 58.8203C25.5889 58.8203 22.3576 57.5452 19.6813 54.9949C17.0049 52.4447 15.6667 49.3657 15.6667 45.758C15.6667 42.1504 17.0049 39.0714 19.6813 36.5212C22.3576 33.9709 25.5889 32.6958 29.375 32.6958C33.1611 32.6958 36.3924 33.9709 39.0688 36.5212C41.7451 39.0714 43.0833 42.1504 43.0833 45.758C43.0833 49.3657 41.7451 52.4447 39.0688 54.9949C36.3924 57.5452 33.1611 58.8203 29.375 58.8203ZM158.625 58.8203C154.839 58.8203 151.608 57.5452 148.931 54.9949C146.255 52.4447 144.917 49.3657 144.917 45.758C144.917 42.1504 146.255 39.0714 148.931 36.5212C151.608 33.9709 154.839 32.6958 158.625 32.6958C162.411 32.6958 165.642 33.9709 168.319 36.5212C170.995 39.0714 172.333 42.1504 172.333 45.758C172.333 49.3657 170.995 52.4447 168.319 54.9949C165.642 57.5452 162.411 58.8203 158.625 58.8203ZM94 45.758C87.4722 45.758 81.9236 43.581 77.3542 39.2269C72.7847 34.8729 70.5 29.5858 70.5 23.3657C70.5 17.0211 72.7847 11.703 77.3542 7.41108C81.9236 3.11921 87.4722 0.973267 94 0.973267C100.658 0.973267 106.24 3.11921 110.744 7.41108C115.248 11.703 117.5 17.0211 117.5 23.3657C117.5 29.5858 115.248 34.8729 110.744 39.2269C106.24 43.581 100.658 45.758 94 45.758ZM94 12.1695C90.7361 12.1695 87.9618 13.2269 85.6771 15.3417C83.3924 17.4566 82.25 20.1312 82.25 23.3657C82.25 26.4757 83.3924 29.1193 85.6771 31.2963C87.9618 33.4733 90.7361 34.5619 94 34.5619C97.3944 34.5619 100.201 33.4733 102.421 31.2963C104.64 29.1193 105.75 26.4757 105.75 23.3657C105.75 20.1312 104.64 17.4566 102.421 15.3417C100.201 13.2269 97.3944 12.1695 94 12.1695Z" fill="#BFBC37"/>
</svg>
